English language but low compressed quality. Check screens before downloading.

Technical Information :

Video
ID                             : 1
Format                         : AVC
Format/Info                    : Advanced Video Codec
Format profile                 : High@L3.1
Format settings, CABAC         : Yes
Format settings, ReFrames      : 4 frames
Codec ID                       : avc1
Codec ID/Info                  : Advanced Video Coding
Duration                       : 57mn 39s
Bit rate                       : 750 Kbps
Width                          : 640 pixels
Height                         : 362 pixels
Display aspect ratio           : 16:9
Original display aspect ratio  : 16:9
Frame rate mode                : Constant
Frame rate                     : 29.970 fps
Color space                    : YUV
Chroma subsampling             : 4:2:0
Bit depth                      : 8 bits
Scan type                      : Progressive
Bits/(Pixel*Frame)             : 0.108
Stream size                    : 309 MiB (88%)
Writing library                : x264 core 129 r2245 bc13772
Encoding settings              : cabac=1 / ref=3 / deblock=1:0:0 / analyse=0x3:0x113 / me=hex / subme=7 / psy=1 / psy_rd=1.00:0.00 / mixed_ref=1 / me_range=16 / chroma_me=1 / trellis=1 / 8x8dct=1 / cqm=0 / deadzone=21,11 / fast_pskip=1 / chroma_qp_offset=-2 / threads=12 / lookahead_threads=2 / sliced_threads=0 / nr=0 / decimate=1 / interlaced=0 / bluray_compat=0 / constrained_intra=0 / bframes=3 / b_pyramid=2 / b_adapt=1 / b_bias=0 / direct=1 / weightb=1 / open_gop=0 / weightp=2 / keyint=90 / keyint_min=30 / scenecut=40 / intra_refresh=0 / rc_lookahead=40 / rc=2pass / mbtree=1 / bitrate=750 / ratetol=1.0 / qcomp=0.60 / qpmin=5 / qpmax=69 / qpstep=4 / cplxblur=20.0 / qblur=0.5 / vbv_maxrate=1125 / vbv_bufsize=3750 / nal_hrd=none / ip_ratio=1.40 / aq=1:1.00
Encoded date                   : UTC 2013-04-13 20:35:14
Tagged date                    : UTC 2013-04-13 20:35:14

Audio
ID                             : 2
Format                         : AAC
Format/Info                    : Advanced Audio Codec
Format profile                 : LC
Codec ID                       : 40
Duration                       : 52mn 36s
Source duration                : 52mn 36s
Bit rate mode                  : Variable
Bit rate                       : 110 Kbps
Channel(s)                     : 2 channels
Channel positions              : Front: L R
Sampling rate                  : 44.1 KHz
Compression mode               : Lossy
Delay relative to video        : 21ms
Stream size                    : 41.2 MiB (12%)
Source stream size             : 41.2 MiB (12%)
Encoded date                   : UTC 2013-04-13 20:35:14
Tagged date                    : UTC 2013-04-13 20:35:14


Screens : 
 
http://i.imgur.com/292JnxA.jpg
 
http://i.imgur.com/8deyVt2.jpg
 
http://i.imgur.com/eDFAShv.jpg

